<?xml version="1.0" encoding="utf-8"?>
<!-- Generator: Adobe Illustrator 16.0.0, SVG Export Plug-In . SVG Version: 6.00 Build 0)  -->
<!DOCTYPE svg PUBLIC "-//W3C//DTD SVG 1.1//EN" "http://www.w3.org/Graphics/SVG/1.1/DTD/svg11.dtd">
<svg version="1.1" id="BRANDING" xmlns="http://www.w3.org/2000/svg" xmlns:xlink="http://www.w3.org/1999/xlink" x="0px" y="0px"
	 viewBox="-23.5 530.8 612.1 141.3" enable-background="new -23.5 530.8 612.1 141.3" xml:space="preserve">
<g id="LOGO">
	<path fill="#FFFFFF" d="M50,563.6l-16.4-16.4L50,530.8c0,0-2.9,7.1-2.9,16.4C47.1,556.5,50,563.6,50,563.6z"/>
	<polyline fill="#FFFFFF" points="84.8,551.8 49.7,571.2 15.2,551.8 -19.5,571.2 -19.5,594.5 119.5,573.7 	"/>
	<polygon fill="#FFFFFF" points="85.5,636.7 115.5,609.8 115.5,583.7 -23.5,604.4 -23.5,609.8 -6.8,624.8 	"/>
	<polygon fill="#FFFFFF" points="12.6,635.6 53.9,672.1 84.8,644.8 	"/>
</g>
<g id="Lettering">
	<path fill="#FFFFFF" d="M190.3,592.9H176v51.4h-14.3v-63.5h25.8c0,0,6.4,0,9.6,0c5.7,0,10.1,2.2,12.2,4.6c2,2.4,4.2,6.1,4.2,11
		s0,7.3,0,11.6v36.3h-14.3v-34.1c0-3.3,0,1.3,0-11.1C199.1,593.9,195.8,592.9,190.3,592.9z"/>
	<path display="none" fill="#FFFFFF" d="M281.8,641c-2.8,0.7-6.4,1.4-10.8,2.2c-4.5,0.7-9.3,1.1-14.6,1.1c-5.1,0-9.2-0.7-12.5-2.2
		c-3.4-1.4-6-3.4-8.1-5.9s-3.5-5.5-4.3-9c-0.8-3.5-1.3-7.3-1.3-11.6v-34.8h14.3v32.5c0,6.6,1,11.4,2.9,14.2
		c1.9,2.8,5.3,4.3,10.1,4.3c1.7,0,3.6-0.1,5.5-0.2c1.9-0.1,3.4-0.4,4.3-0.6v-50.1h14.3L281.8,641L281.8,641z"/>
	<path fill="#FFFFFF" d="M414.3,644.3H400v-63.5h14.3V644.3z"/>
	<path fill="#FFFFFF" d="M253.3,632.3h14.3v-51.4H282v63.5h-25.8c0,0-6.4,0-9.6,0c-5.7,0-10.1-2.2-12.2-4.6c-2-2.4-4.2-6.1-4.2-11
		c0-4.8,0-7.3,0-11.6V581h14.3v34.1c0,3.3,0-1.3,0,11.1C244.5,631.3,247.6,632.3,253.3,632.3z"/>
	<path fill="#FFFFFF" d="M452.5,632.3h14.3v-51.4h14.3v63.5h-25.8c0,0-6.4,0-9.6,0c-5.7,0-10.1-2.2-12.2-4.6c-2-2.4-4.2-6.1-4.2-11
		c0-4.8,0-7.3,0-11.6V581h14.3v34.1c0,3.3,0-1.3,0,11.1C443.7,631.3,446.9,632.3,452.5,632.3z"/>
	<path fill="#FFFFFF" d="M528,592.9h-14.3v51.4h-14.3v-63.5h25.8c0,0,6.4,0,9.6,0c5.7,0,10.1,2.2,12.2,4.6c2,2.4,4.2,6.1,4.2,11
		s0,7.3,0,11.6v36.3h-14.3v-34.1c0-3.3,0,1.3,0-11.1C536.8,593.9,533.7,592.9,528,592.9z"/>
	<path fill="#FFFFFF" d="M565.5,592.9h-14.3v51.4h-14.3v-63.5h25.8c0,0,6.4,0,9.6,0c5.7,0,10.1,2.2,12.2,4.6c2,2.4,4.2,6.1,4.2,11
		s0,7.3,0,11.6v36.3h-14.3v-34.1c0-3.3,0,1.3,0-11.1C574.2,593.9,571,592.9,565.5,592.9z"/>
	<path fill="#FFFFFF" d="M336.9,632.3h-14.3c-5.5,0-8.8-1-8.8-6.4c0-12.4,0-7.8,0-11.1v-22h18.7l3.3-12h-22v-22.3l-14.3,3.3v19l0,0
		V617c0,4.2,0,6.7,0,11.6c0,4.8,2.2,8.6,4.2,11c2.2,2.4,6.5,4.6,12.2,4.6c3.3,0,21.2,0,21.2,0L336.9,632.3z"/>
	<path fill="#FFFFFF" d="M384.9,592.9h-12c-5.5,0-8.8,1-8.8,6.4c0,12.4,0,7.8,0,11.1v34.1h-14.3v-36.3c0-4.2,0-6.7,0-11.6
		s2.2-8.6,4.2-11c2-2.4,6.5-4.6,12.2-4.6c3.3,0,22.2,0,22.2,0L384.9,592.9z"/>
</g>
</svg>
